<?xml version="1.0" standalone="no"?>
<!DOCTYPE svg PUBLIC "-//W3C//DTD SVG 20010904//EN"
 "http://www.w3.org/TR/2001/REC-SVG-20010904/DTD/svg10.dtd">
<svg version="1.0" xmlns="http://www.w3.org/2000/svg"
 width="500.000000pt" height="500.000000pt" viewBox="0 0 500.000000 500.000000"
 preserveAspectRatio="xMidYMid meet">
<metadata>
Created by potrace 1.11, written by Peter Selinger 2001-2013
</metadata>
<g transform="translate(0.000000,500.000000) scale(0.100000,-0.100000)"
fill="#000000" stroke="none">
<path d="M2 2498 l3 -2503 2 2493 3 2492 2495 0 c1657 0 2495 3 2495 10 0 7
-840 10 -2500 10 l-2500 0 2 -2502z"/>
<path d="M997 4963 c-4 -3 -7 -222 -7 -485 l0 -478 -479 0 c-309 0 -482 -4
-486 -10 -4 -7 162 -10 489 -10 l496 0 0 495 c0 272 -1 495 -3 495 -2 0 -7 -3
-10 -7z"/>
<path d="M1518 4963 l-488 -3 -2 -490 -3 -490 493 0 492 0 0 495 c0 272 -1
494 -2 493 -2 -2 -222 -4 -490 -5z"/>
<path d="M2518 4963 l-488 -3 -2 -490 -3 -490 493 0 492 0 0 495 c0 272 -1
494 -2 493 -2 -2 -222 -4 -490 -5z"/>
<path d="M3518 4963 l-488 -3 -2 -490 -3 -490 493 0 492 0 0 495 c0 272 -1
494 -2 493 -2 -2 -222 -4 -490 -5z"/>
<path d="M4990 4480 l0 -480 -479 0 c-309 0 -482 -4 -486 -10 -4 -7 160 -10
484 -10 l491 0 0 490 c0 270 -2 490 -5 490 -3 0 -5 -216 -5 -480z"/>
<path d="M997 3963 c-4 -3 -7 -222 -7 -485 l0 -478 -479 0 c-309 0 -482 -4
-486 -10 -4 -7 162 -10 489 -10 l496 0 0 495 c0 272 -1 495 -3 495 -2 0 -7 -3
-10 -7z"/>
<path d="M1518 3963 l-488 -3 -2 -490 -3 -490 493 0 492 0 0 495 c0 272 -1
494 -2 493 -2 -2 -222 -4 -490 -5z"/>
<path d="M2997 3963 c-4 -3 -7 -222 -7 -485 l0 -478 -479 0 c-309 0 -482 -4
-486 -10 -4 -7 162 -10 489 -10 l496 0 0 495 c0 272 -1 495 -3 495 -2 0 -7 -3
-10 -7z"/>
<path d="M3997 3963 c-4 -3 -7 -222 -7 -485 l0 -478 -479 0 c-309 0 -482 -4
-486 -10 -4 -7 162 -10 489 -10 l496 0 0 495 c0 272 -1 495 -3 495 -2 0 -7 -3
-10 -7z"/>
<path d="M4990 3480 l0 -480 -479 0 c-309 0 -482 -4 -486 -10 -4 -7 160 -10
484 -10 l491 0 0 490 c0 270 -2 490 -5 490 -3 0 -5 -216 -5 -480z"/>
<path d="M997 2963 c-4 -3 -7 -222 -7 -485 l0 -478 -479 0 c-309 0 -482 -4
-486 -10 -4 -7 162 -10 489 -10 l496 0 0 495 c0 272 -1 495 -3 495 -2 0 -7 -3
-10 -7z"/>
<path d="M1518 2963 l-488 -3 -2 -490 -3 -490 493 0 492 0 0 495 c0 272 -1
494 -2 493 -2 -2 -222 -4 -490 -5z"/>
<path d="M2518 2963 l-488 -3 -2 -490 -3 -490 493 0 492 0 0 495 c0 272 -1
494 -2 493 -2 -2 -222 -4 -490 -5z"/>
<path d="M3518 2963 l-488 -3 -2 -490 -3 -490 493 0 492 0 0 495 c0 272 -1
494 -2 493 -2 -2 -222 -4 -490 -5z"/>
<path d="M4990 2480 l0 -480 -479 0 c-309 0 -482 -4 -486 -10 -4 -7 160 -10
484 -10 l491 0 0 490 c0 270 -2 490 -5 490 -3 0 -5 -216 -5 -480z"/>
<path d="M997 1963 c-4 -3 -7 -222 -7 -485 l0 -478 -479 0 c-309 0 -482 -4
-486 -10 -4 -7 162 -10 489 -10 l496 0 0 495 c0 272 -1 495 -3 495 -2 0 -7 -3
-10 -7z"/>
<path d="M1997 1963 c-4 -3 -7 -222 -7 -485 l0 -478 -479 0 c-309 0 -482 -4
-486 -10 -4 -7 162 -10 489 -10 l496 0 0 495 c0 272 -1 495 -3 495 -2 0 -7 -3
-10 -7z"/>
<path d="M2997 1963 c-4 -3 -7 -222 -7 -485 l0 -478 -479 0 c-309 0 -482 -4
-486 -10 -4 -7 162 -10 489 -10 l496 0 0 495 c0 272 -1 495 -3 495 -2 0 -7 -3
-10 -7z"/>
<path d="M3518 1963 l-488 -3 -2 -490 -3 -490 493 0 492 0 0 495 c0 272 -1
494 -2 493 -2 -2 -222 -4 -490 -5z"/>
<path d="M4990 1480 l0 -480 -479 0 c-309 0 -482 -4 -486 -10 -4 -7 160 -10
484 -10 l491 0 0 490 c0 270 -2 490 -5 490 -3 0 -5 -216 -5 -480z"/>
<path d="M997 963 c-12 -11 -8 -963 3 -963 7 0 10 168 10 485 0 267 -1 485 -3
485 -2 0 -7 -3 -10 -7z"/>
<path d="M1518 963 l-488 -3 0 -480 0 -480 490 0 490 0 0 485 c0 267 -1 484
-2 483 -2 -2 -222 -4 -490 -5z"/>
<path d="M2518 963 l-488 -3 0 -480 0 -480 490 0 490 0 0 485 c0 267 -1 484
-2 483 -2 -2 -222 -4 -490 -5z"/>
<path d="M3518 963 l-488 -3 0 -480 0 -480 490 0 490 0 0 485 c0 267 -1 484
-2 483 -2 -2 -222 -4 -490 -5z"/>
<path d="M4995 480 c0 -267 1 -376 2 -243 2 134 2 352 0 486 -1 133 -2 24 -2
-243z"/>
</g>
</svg>
